<?xml version="1.0" encoding="UTF-8"?>
<svg width="16px" height="14px" viewBox="0 0 16 14" version="1.1" xmlns="http://www.w3.org/2000/svg" xmlns:xlink="http://www.w3.org/1999/xlink">
    <!-- Generator: Sketch 48.2 (47327) - http://www.bohemiancoding.com/sketch -->
    <title>icon-twitter</title>
    <desc>Created with Sketch.</desc>
    <defs></defs>
    <g id="Social-Media" stroke="none" stroke-width="1" fill="none" fill-rule="evenodd">
        <g id="Group" transform="translate(-336.000000, -145.000000)" fill="#FFFFFF">
            <path d="M352,147.0004 C351.4,147.3004 350.8,147.4004 350.1,147.5004 C350.8,147.1004 351.3,146.5004 351.5,145.7004 C350.9,146.1004 350.2,146.3004 349.4,146.5004 C348.8,145.9004 347.9,145.5004 347,145.5004 C345.3,145.5004 343.8,147.0004 343.8,148.8004 C343.8,149.1004 343.8,149.3004 343.9,149.5004 C341.2,149.4004 338.7,148.1004 337.1,146.1004 C336.8,146.6004 336.7,147.1004 336.7,147.8004 C336.7,148.9004 337.3,149.9004 338.2,150.5004 C337.7,150.5004 337.2,150.3004 336.7,150.1004 C336.7,151.7004 337.8,153.0004 339.3,153.3004 C339,153.4004 338.7,153.4004 338.4,153.4004 C338.2,153.4004 338,153.4004 337.8,153.3004 C338.2,154.6004 339.4,155.6004 340.9,155.6004 C339.8,156.5004 338.4,157.0004 336.8,157.0004 L336,157.0004 C337.5,157.9004 339.2,158.5004 341,158.5004 C347,158.5004 350.3,153.5004 350.3,149.2004 L350.3,148.8004 C351,148.3004 351.6,147.7004 352,147.0004" id="icon-twitter"></path>
        </g>
    </g>
</svg>