<?xml version="1.0" encoding="UTF-8"?>
<svg width="16px" height="16px" viewBox="0 0 16 16" version="1.1" xmlns="http://www.w3.org/2000/svg" xmlns:xlink="http://www.w3.org/1999/xlink">
    <!-- Generator: Sketch 48.2 (47327) - http://www.bohemiancoding.com/sketch -->
    <title>icon-instagram</title>
    <desc>Created with Sketch.</desc>
    <defs></defs>
    <g id="Social-Media" stroke="none" stroke-width="1" fill="none" fill-rule="evenodd">
        <g id="Group" transform="translate(0.000000, -96.000000)" fill="#FFFFFF">
            <g id="icon-instagram" transform="translate(0.000000, 96.000000)">
                <path d="M12.145,2.9324 C12.675,2.9324 13.105,3.3624 13.105,3.8924 C13.105,4.4224 12.675,4.8524 12.145,4.8524 C11.615,4.8524 11.185,4.4224 11.185,3.8924 C11.185,3.3624 11.615,2.9324 12.145,2.9324" id="Fill-37"></path>
                <path d="M8,6.0004 C6.897,6.0004 6,6.8974 6,8.0004 C6,9.1034 6.897,10.0004 8,10.0004 C9.103,10.0004 10,9.1034 10,8.0004 C10,6.8974 9.103,6.0004 8,6.0004 M8,12.0004 C5.794,12.0004 4,10.2064 4,8.0004 C4,5.7944 5.794,4.0004 8,4.0004 C10.206,4.0004 12,5.7944 12,8.0004 C12,10.2064 10.206,12.0004 8,12.0004" id="Fill-38"></path>
                <path d="M4,2.0004 C3.065,2.0004 2,3.0654 2,4.0004 L2,12.0004 C2,12.9534 3.047,14.0004 4,14.0004 L12,14.0004 C12.935,14.0004 14,12.9354 14,12.0004 L14,4.0004 C14,3.0654 12.935,2.0004 12,2.0004 L4,2.0004 Z M12,16.0004 L4,16.0004 C1.944,16.0004 0,14.0564 0,12.0004 L0,4.0004 C0,1.9444 1.944,0.0004 4,0.0004 L12,0.0004 C14.056,0.0004 16,1.9444 16,4.0004 L16,12.0004 C16,14.0564 14.056,16.0004 12,16.0004 L12,16.0004 Z" id="Fill-39"></path>
            </g>
        </g>
    </g>
</svg>