<?xml version="1.0" encoding="UTF-8"?>
<svg width="169px" height="28px" viewBox="0 0 169 28" version="1.1" xmlns="http://www.w3.org/2000/svg" xmlns:xlink="http://www.w3.org/1999/xlink">
    <!-- Generator: Sketch 48.2 (47327) - http://www.bohemiancoding.com/sketch -->
    <title>logo</title>
    <desc>Created with Sketch.</desc>
    <defs></defs>
    <g id="3" stroke="none" stroke-width="1" fill="none" fill-rule="evenodd" transform="translate(-38.000000, -32.000000)">
        <g id="logo" transform="translate(38.000000, 32.000000)">
            <g id="manila" transform="translate(0.000000, 3.000000)" fill="#5B7194">
                <polygon id="ManilaCSS" points="13.6368408 23.6384851 18.7016554 9.84068125 18.7016554 23.6384851 23.2535774 23.6384851 23.2535774 1.50993178 17.707926 1.50993178 11.6814377 17.7483849 5.62289366 1.50993178 0.0451864351 1.50993178 0.0451864351 23.6384851 4.59710843 23.6384851 4.59710843 9.84068125 9.66192304 23.6384851"></polygon>
                <path d="M28.1581131,12.2487885 L28.1581131,8.05087179 C29.3121215,7.56274194 31.1072457,7.10715408 32.7741467,7.10715408 C37.0696224,7.10715408 39.5699739,9.18984145 39.5699739,13.90843 L39.5699739,23.6384851 L35.2103866,23.6384851 L35.2103866,22.4344314 C34.4089919,23.3781491 33.1908719,23.996447 31.6521941,23.996447 C28.0940015,23.996447 26.3950447,21.4581717 26.3950447,18.7246446 C26.3950447,15.8284074 28.478671,13.5179261 31.7163056,13.5179261 C33.0626488,13.5179261 34.4089919,14.006056 35.2103866,14.6894378 L35.2103866,13.810804 C35.2103866,11.8582846 33.9281551,11.0447349 32.2612541,11.0447349 C30.8507993,11.0447349 29.3441773,11.5328647 28.1581131,12.2487885 Z M30.6905204,18.7246446 C30.6905204,19.8636142 31.6842499,20.7422479 32.9344256,20.7422479 C34.1846014,20.7422479 35.146275,19.8636142 35.146275,18.7246446 C35.146275,17.5856749 34.1846014,16.7070412 32.9344256,16.7070412 C31.6842499,16.7070412 30.6905204,17.5856749 30.6905204,18.7246446 Z" id="Combined-Shape"></path>
                <path d="M47.4236421,7.43257398 L43.0640548,7.43257398 L43.0640548,23.6384851 L47.4236421,23.6384851 L47.4236421,14.2338499 C47.5198095,12.5091244 48.5455947,11.4352388 50.1483841,11.4352388 C51.8152851,11.4352388 52.8731262,12.6392924 52.8731262,14.4291019 L52.8731262,23.6384851 L57.2647692,23.6384851 L57.2647692,13.1925062 C57.2647692,9.71051329 55.0529198,7.10715408 51.6229504,7.10715408 C49.6354915,7.10715408 48.2891484,8.08341378 47.4236421,9.48271936 L47.4236421,7.43257398 Z" id="Path"></path>
                <path d="M60.3741807,2.71398542 C60.3741807,1.24959586 61.4640775,0.0780842155 62.9386438,0.0780842155 C64.4452659,0.0780842155 65.5031069,1.24959586 65.5031069,2.71398542 C65.5031069,4.17837497 64.4452659,5.31734462 62.9386438,5.31734462 C61.4640775,5.31734462 60.3741807,4.17837497 60.3741807,2.71398542 Z M65.1184374,7.43257398 L65.1184374,23.6384851 L60.7588502,23.6384851 L60.7588502,7.43257398 L65.1184374,7.43257398 Z" id="Combined-Shape"></path>
                <polygon id="Path" points="73.1644404 1.18451188 68.7727973 1.18451188 68.7727973 23.6384851 73.1644404 23.6384851"></polygon>
                <path d="M77.4919719,12.2487885 L77.4919719,8.05087179 C78.6459803,7.56274194 80.4411044,7.10715408 82.1080054,7.10715408 C86.4034811,7.10715408 88.9038326,9.18984145 88.9038326,13.90843 L88.9038326,23.6384851 L84.5442454,23.6384851 L84.5442454,22.4344314 C83.7428507,23.3781491 82.5247307,23.996447 80.9860528,23.996447 C77.4278603,23.996447 75.7289035,21.4581717 75.7289035,18.7246446 C75.7289035,15.8284074 77.8125298,13.5179261 81.0501644,13.5179261 C82.3965075,13.5179261 83.7428507,14.006056 84.5442454,14.6894378 L84.5442454,13.810804 C84.5442454,11.8582846 83.2620138,11.0447349 81.5951128,11.0447349 C80.1846581,11.0447349 78.678036,11.5328647 77.4919719,12.2487885 Z M80.0243792,18.7246446 C80.0243792,19.8636142 81.0181086,20.7422479 82.2682844,20.7422479 C83.5184601,20.7422479 84.4801338,19.8636142 84.4801338,18.7246446 C84.4801338,17.5856749 83.5184601,16.7070412 82.2682844,16.7070412 C81.0181086,16.7070412 80.0243792,17.5856749 80.0243792,18.7246446 Z" id="Combined-Shape"></path>
            </g>
            <g id="css" transform="translate(92.000000, 4.000000)" fill="#039BE5">
                <path d="M16.4574059,17.1256505 C15.2842047,18.2108402 13.459225,18.9908203 11.4061229,18.9908203 C7.59321895,18.9908203 4.75798269,15.8369877 4.75798269,11.9031749 C4.75798269,8.00327429 7.62580788,4.81552944 11.4061229,4.81552944 C13.459225,4.81552944 15.2190268,5.59550956 16.4574059,6.71461148 L16.4574059,1.18692627 C14.9583154,0.440858329 13.2311026,0 11.4061229,0 C4.9209273,0 0,5.15465124 0,11.9031749 C0,18.6516985 4.9209273,23.8063498 11.4061229,23.8063498 C13.2311026,23.8063498 14.9583154,23.3654915 16.4574059,22.6194235 L16.4574059,17.1256505 Z" id="Path"></path>
                <path d="M32.1300722,1.05127755 C30.7613374,0.40694615 29.0341245,0 27.3720895,0 C21.6364391,0 19.6485149,3.49295446 19.6485149,6.71461148 C19.6485149,9.32584927 20.5610047,11.2927557 23.4940077,13.056189 L26.5247775,14.9213588 C27.7631566,15.6674268 28.2845793,16.3795825 28.2845793,17.1595627 C28.2845793,18.4143133 27.3069117,19.29603 25.5471098,19.29603 C23.4940077,19.29603 21.3431388,18.2786646 20.1373487,17.2952114 L20.1373487,22.6194235 C21.5386724,23.2298427 23.5591856,23.8063498 25.7426434,23.8063498 C30.8916931,23.8063498 33.2055066,20.5168684 33.2055066,16.8882652 C33.2055066,14.3109396 32.0648943,12.310121 29.1970692,10.5127755 L26.2640661,8.68151787 C25.1886317,8.03718647 24.6020311,7.3250307 24.6020311,6.57896276 C24.6020311,5.39203649 25.481932,4.51031983 27.3395006,4.51031983 C29.0341245,4.51031983 30.9894599,5.32421213 32.1300722,6.17201661 L32.1300722,1.05127755 Z" id="Path"></path>
                <path d="M47.8973989,1.05127755 C46.5286642,0.40694615 44.8014513,0 43.1394162,0 C37.4037659,0 35.4158416,3.49295446 35.4158416,6.71461148 C35.4158416,9.32584927 36.3283314,11.2927557 39.2613344,13.056189 L42.2921042,14.9213588 C43.5304833,15.6674268 44.0519061,16.3795825 44.0519061,17.1595627 C44.0519061,18.4143133 43.0742384,19.29603 41.3144366,19.29603 C39.2613344,19.29603 37.1104656,18.2786646 35.9046754,17.2952114 L35.9046754,22.6194235 C37.3059991,23.2298427 39.3265123,23.8063498 41.5099701,23.8063498 C46.6590199,23.8063498 48.9728334,20.5168684 48.9728334,16.8882652 C48.9728334,14.3109396 47.8322211,12.310121 44.9643959,10.5127755 L42.0313929,8.68151787 C40.9559584,8.03718647 40.3693578,7.3250307 40.3693578,6.57896276 C40.3693578,5.39203649 41.2492587,4.51031983 43.1068273,4.51031983 C44.8014513,4.51031983 46.7567866,5.32421213 47.8973989,6.17201661 L47.8973989,1.05127755 Z" id="Path"></path>
            </g>
            <g id="brackets" transform="translate(145.000000, 0.000000)" fill="#F9C82E">
                <path d="M14.1176471,24.0096767 L15.5401359,24.0096767 C16.0880603,24.0096767 16.530608,23.8908716 16.8677922,23.6532577 C17.2049764,23.4156439 17.373566,23.0268271 17.373566,22.4867957 L17.373566,17.0433063 C17.373566,16.4384711 17.5105451,15.8390452 17.7845072,15.2450106 C18.0584694,14.6509761 18.6063856,14.2027567 19.4282722,13.9003391 C18.6063856,13.5979215 18.0584694,13.1497022 17.7845072,12.5556676 C17.5105451,11.9616331 17.373566,11.3622072 17.373566,10.757372 L17.373566,5.31388256 C17.373566,4.77385114 17.2049764,4.38503436 16.8677922,4.14742053 C16.530608,3.90980671 16.0880603,3.79100158 15.5401359,3.79100158 L14.1176471,3.79100158 L14.1176471,0 L16.9626248,0 C18.3324357,-3.83713481e-15 19.4335365,0.39421702 20.26596,1.18266289 C21.0983836,1.97110875 21.5145892,3.17536075 21.5145892,4.79545499 L21.5145892,9.7529186 C21.5145892,10.4441588 21.6884472,10.9949826 22.0361684,11.4054065 C22.3838896,11.8158303 22.8738531,12.0210392 23.5060736,12.0210392 L23.7905713,12.0210392 L23.7905713,15.7796391 L23.5060736,15.7796391 C22.8738531,15.7796391 22.3838896,15.9848479 22.0361684,16.3952718 C21.6884472,16.8056957 21.5145892,17.3565195 21.5145892,18.0477597 L21.5145892,23.0052233 C21.5145892,24.6253175 21.0983836,25.8295695 20.26596,26.6180154 C19.4335365,27.4064612 18.3324357,27.8006783 16.9626248,27.8006783 L14.1176471,27.8006783 L14.1176471,24.0096767 Z" id="}"></path>
                <path d="M2.27598218,18.0477597 C2.27598218,17.3565195 2.11266102,16.8056957 1.7860138,16.3952718 C1.45936657,15.9848479 0.958866236,15.7796391 0.284497773,15.7796391 L0,15.7796391 L0,12.0210392 L0.284497773,12.0210392 C0.958866236,12.0210392 1.45936657,11.8158303 1.7860138,11.4054065 C2.11266102,10.9949826 2.27598218,10.4441588 2.27598218,9.7529186 L2.27598218,4.79545499 C2.27598218,3.17536075 2.69745615,1.97110875 3.54041673,1.18266289 C4.38337731,0.39421702 5.47920962,-3.83713481e-15 6.82794655,0 L9.67292428,0 L9.67292428,3.79100158 L8.25043541,3.79100158 C7.70251104,3.79100158 7.25996337,3.90980671 6.92277914,4.14742053 C6.58559491,4.38503436 6.41700532,4.77385114 6.41700532,5.31388256 L6.41700532,10.757372 C6.41700532,11.3622072 6.28002628,11.9616331 6.00606409,12.5556676 C5.7321019,13.1497022 5.20525945,13.5979215 4.42552091,13.9003391 C5.20525945,14.2027567 5.7321019,14.6509761 6.00606409,15.2450106 C6.28002628,15.8390452 6.41700532,16.4384711 6.41700532,17.0433063 L6.41700532,22.4867957 C6.41700532,23.0268271 6.58559491,23.4156439 6.92277914,23.6532577 C7.25996337,23.8908716 7.70251104,24.0096767 8.25043541,24.0096767 L9.67292428,24.0096767 L9.67292428,27.8006783 L6.82794655,27.8006783 C5.47920962,27.8006783 4.38337731,27.4064612 3.54041673,26.6180154 C2.69745615,25.8295695 2.27598218,24.6253175 2.27598218,23.0052233 L2.27598218,18.0477597 Z" id="{"></path>
            </g>
        </g>
    </g>
</svg>