<?xml version="1.0" encoding="UTF-8"?>
<svg width="29px" height="24px" viewBox="0 0 29 24" version="1.1" xmlns="http://www.w3.org/2000/svg" xmlns:xlink="http://www.w3.org/1999/xlink">
    <!-- Generator: Sketch 48.2 (47327) - http://www.bohemiancoding.com/sketch -->
    <title>icon-loop</title>
    <desc>Created with Sketch.</desc>
    <defs></defs>
    <g id="easy" stroke="none" stroke-width="1" fill="none" fill-rule="evenodd" transform="translate(-663.000000, -672.000000)" opacity="0.588428442">
        <g id="icon-loop" transform="translate(663.000000, 672.000000)" fill="#FFFFFF">
            <g id="Group">
                <g transform="translate(2.718750, 0.000000)" id="Shape">
                    <path d="M11.78125,0 C7.53133398,0 3.59492383,2.34565385 1.50816992,6.12155769 L1.39698437,6.32261538 L2.58162305,7.00171154 L2.69275195,6.80065385 C4.53906641,3.45998077 8.02150195,1.38461538 11.78125,1.38461538 C17.5278945,1.38461538 22.203125,6.14665385 22.203125,12 C22.203125,12.7216731 22.1316445,13.4427115 21.9907793,14.1430962 L21.9452969,14.3691346 L23.2769746,14.6471538 L23.3225137,14.4210577 C23.4817305,13.6294615 23.5625,12.8149038 23.5625,12 C23.5625,5.38321154 18.2774199,0 11.78125,0 L11.78125,0 Z"></path>
                    <path d="M20.869748,17.1991731 C19.0234336,20.5400192 15.540998,22.6153846 11.78125,22.6153846 C6.03460547,22.6153846 1.359375,17.8533462 1.359375,12 C1.359375,11.2781538 1.43085547,10.5570577 1.57177734,9.85673077 L1.61725977,9.63069231 L0.285582031,9.35267308 L0.240042969,9.57871154 C0.0807695313,10.3701923 0,11.1848077 0,12 C0,18.6167885 5.28508008,24 11.78125,24 C16.031166,24 19.9675762,21.6543462 22.0543301,17.8783269 L22.1655156,17.6772692 L20.980877,16.9981731 L20.869748,17.1991731 L20.869748,17.1991731 Z"></path>
                </g>
                <polygon id="Shape" points="21.75 12 25.375 15.6923077 29 12"></polygon>
                <polygon id="Shape" points="0 12 3.625 8.30769231 7.25 12"></polygon>
            </g>
        </g>
    </g>
</svg>