<?xml version="1.0" encoding="UTF-8"?>
<svg width="22px" height="24px" viewBox="0 0 22 24" version="1.1" xmlns="http://www.w3.org/2000/svg" xmlns:xlink="http://www.w3.org/1999/xlink">
    <!-- Generator: Sketch 48.2 (47327) - http://www.bohemiancoding.com/sketch -->
    <title>icon-shuffle</title>
    <desc>Created with Sketch.</desc>
    <defs></defs>
    <g id="easy" stroke="none" stroke-width="1" fill="none" fill-rule="evenodd" transform="translate(-311.000000, -672.000000)">
        <g id="icon-shuffle" transform="translate(311.000000, 672.000000)" fill="#F6CA31">
            <g id="Group">
                <path d="M17.2657623,6.0503371 L18.0506787,6.0503371 L15.1668924,8.42928693 L16.3211345,9.83500921 L21.9594033,5.13500435 L16.3248289,0.329507397 L15.1671766,1.75845624 L18.0762553,4.2196716 L17.2657623,4.2196716 C11.3702501,4.2196716 8.93951001,8.77459621 6.98642655,12.4420485 C6.90901481,12.587472 6.8321146,12.7275179 6.75566908,12.8704242 L6.75231571,12.875859 C6.66188834,13.0447951 6.57180199,13.2256306 6.48177247,13.3929076 C4.46054167,17.1474882 2.67978743,18.1534388 0.134009667,18.1778668 L0.134009667,20.0091616 C2.27249482,20.0091616 3.40570723,19.468486 4.23967381,18.9692292 C5.65689978,18.1207729 6.91339124,16.4200847 8.08087625,14.2514325 C8.16846178,14.0887321 8.25610415,13.9223704 8.34414438,13.7579538 L8.35693266,13.7328965 C8.43985757,13.5778048 8.52300983,13.4312372 8.60644628,13.2744292 C10.4993396,9.71813265 12.4567426,6.0503371 17.2657623,6.0503371 L17.2657623,6.0503371 Z" id="Shape"></path>
                <path d="M16.3210776,14.1649908 L15.1668356,15.5707131 L18.0506787,17.9496629 L17.2657623,17.9496629 C13.2458081,17.9496629 11.2185526,15.386674 9.55590526,12.4684215 L8.55284916,14.3344418 C10.3394576,17.1845591 12.8152692,19.7803284 17.2657623,19.7803284 L18.0762553,19.7803284 L15.1671766,22.2415438 L16.3248289,23.6704926 L21.9594033,18.8649956 L16.3210776,14.1649908 L16.3210776,14.1649908 Z" id="Shape"></path>
                <path d="M6.48182931,10.6070924 C6.57185882,10.7743694 6.66194517,10.9552049 6.75237255,11.124141 L6.75572592,11.1295758 C6.82495316,11.2589809 6.89452142,11.386441 6.96460121,11.5172764 C7.29539147,10.9034314 7.64550625,10.2731103 8.02716546,9.6494827 C6.87491272,7.52825625 5.63530179,5.8661836 4.23978748,5.03077083 C3.40576406,4.53151403 2.27255165,3.99083841 0.134066504,3.99083841 L0.134066504,5.82213321 C2.67984427,5.84656115 4.46059851,6.85251185 6.48182931,10.6070924 L6.48182931,10.6070924 Z" id="Shape"></path>
            </g>
        </g>
    </g>
</svg>